<svg height="512" viewBox="0 0 64 64" width="512" xmlns="http://www.w3.org/2000/svg"><path d="m7 3h16v26h-16z" fill="#3d9ae2"/><path d="m35 7h26v16h-26z" fill="#3d9ae2"/><path d="m41 35h16v26h-16z" fill="#3d9ae2"/><path d="m39 15.27a2 2 0 0 0 -1 1.73v6h-2v-6a2 2 0 0 1 3-1.73z" fill="#1e81ce"/><path d="m42.27 7a2 2 0 0 0 -.27 1v9a2.015 2.015 0 0 0 -2-2v-7a2 2 0 0 1 .27-1z" fill="#1e81ce"/><path d="m49 38a2 2 0 0 1 -.27 1 2 2 0 0 0 -1.73-1h-6v-2h6a2.006 2.006 0 0 1 2 2z" fill="#1e81ce"/><path d="m57 40.27v2a2 2 0 0 0 -1-.27h-9a2.015 2.015 0 0 0 2-2h7a2 2 0 0 1 1 .27z" fill="#1e81ce"/><path d="m12 10h-2a2 2 0 0 1 .27-1 2 2 0 0 0 1.73 1z" fill="#1e81ce"/><path d="m17 22a2.015 2.015 0 0 0 -2 2h-7a2 2 0 0 1 -1-.27v-2a2 2 0 0 0 1 .27z" fill="#1e81ce"/><path d="m23 26v2h-6a2 2 0 0 1 -1.73-3 2 2 0 0 0 1.73 1z" fill="#1e81ce"/><path d="m3 41h26v16h-26z" fill="#3d9ae2"/><path d="m24 49v7a2 2 0 0 1 -.27 1h-2a2 2 0 0 0 .27-1v-9a2.015 2.015 0 0 0 2 2z" fill="#1e81ce"/><path d="m28 41v6a2 2 0 0 1 -3 1.73 2 2 0 0 0 1-1.73v-6z" fill="#1e81ce"/><path d="m22 31v-2h-13v2l-3 5v16a2.015 2.015 0 0 0 2 2 2.006 2.006 0 0 0 2-2v4a2 2 0 0 0 .27 1 1.813 1.813 0 0 0 .32.41 1.955 1.955 0 0 0 1.41.59 2 2 0 0 0 2-2v3a2.015 2.015 0 0 0 2 2 2.006 2.006 0 0 0 2-2v-3a2 2 0 0 0 .27 1 1.813 1.813 0 0 0 .32.41 1.955 1.955 0 0 0 1.41.59 2 2 0 0 0 2-2v-9a2.015 2.015 0 0 0 2 2 2.006 2.006 0 0 0 2-2v-12z" fill="#ffc477"/><path d="m59 46h-3a2 2 0 0 0 1-.27 1.813 1.813 0 0 0 .41-.32 1.955 1.955 0 0 0 .59-1.41 2 2 0 0 0 -2-2h-9a2.015 2.015 0 0 0 2-2 2.006 2.006 0 0 0 -2-2h-12l-4 4h-2v13h2l5 3h16a2.015 2.015 0 0 0 2-2 2.006 2.006 0 0 0 -2-2h4a2 2 0 0 0 1-.27 1.813 1.813 0 0 0 .41-.32 1.955 1.955 0 0 0 .59-1.41 2 2 0 0 0 -2-2h3a2.015 2.015 0 0 0 2-2 2.006 2.006 0 0 0 -2-2z" fill="#ffc477"/><path d="m33 9-5-3h-16a2.015 2.015 0 0 0 -2 2 2.006 2.006 0 0 0 2 2h-4a2 2 0 0 0 -1 .27 1.813 1.813 0 0 0 -.41.32 1.955 1.955 0 0 0 -.59 1.41 2 2 0 0 0 2 2h-3a2.015 2.015 0 0 0 -2 2 2.006 2.006 0 0 0 2 2h3a2 2 0 0 0 -1 .27 1.813 1.813 0 0 0 -.41.32 1.955 1.955 0 0 0 -.59 1.41 2 2 0 0 0 2 2h9a2.015 2.015 0 0 0 -2 2 2.006 2.006 0 0 0 2 2h12l4-4h2v-13z" fill="#ffc477"/><path d="m57.41 10.59a1.955 1.955 0 0 0 -1.41-.59 2.006 2.006 0 0 0 -2 2v-4a2 2 0 0 0 -.27-1 1.813 1.813 0 0 0 -.32-.41 1.955 1.955 0 0 0 -1.41-.59 2 2 0 0 0 -2 2v-3a2.015 2.015 0 0 0 -2-2 2.006 2.006 0 0 0 -2 2v3a2 2 0 0 0 -.27-1 1.813 1.813 0 0 0 -.32-.41 1.955 1.955 0 0 0 -1.41-.59 2 2 0 0 0 -2 2v9a2.015 2.015 0 0 0 -2-2 2.006 2.006 0 0 0 -2 2v12l4 4v2h13v-2l3-5v-16a1.955 1.955 0 0 0 -.59-1.41z" fill="#ffc477"/><g fill="#ffa733"><rect height="7" rx="1" width="2" x="53" y="11"/><rect height="11" rx="1" width="2" x="49" y="7"/><rect height="11" rx="1" width="2" x="45" y="7"/><rect height="6" rx="1" width="2" x="41" y="16"/><rect height="2" rx="1" width="7" x="11" y="9"/><rect height="2" rx="1" width="11" x="7" y="13"/><rect height="2" rx="1" width="11" x="7" y="17"/><rect height="2" rx="1" width="6" x="16" y="21"/><rect height="7" rx="1" width="2" x="9" y="46"/><rect height="11" rx="1" width="2" x="13" y="46"/><rect height="11" rx="1" width="2" x="17" y="46"/><rect height="6" rx="1" width="2" x="21" y="42"/><rect height="2" rx="1" width="7" x="46" y="53"/><rect height="2" rx="1" width="11" x="46" y="49"/><rect height="2" rx="1" width="11" x="46" y="45"/><rect height="2" rx="1" width="6" x="42" y="41"/></g></svg>