<?xml version="1.0" encoding="iso-8859-1"?>
<!-- Generator: Adobe Illustrator 19.0.0, SVG Export Plug-In . SVG Version: 6.00 Build 0)  -->
<svg version="1.1" id="Capa_1" xmlns="http://www.w3.org/2000/svg" xmlns:xlink="http://www.w3.org/1999/xlink" x="0px" y="0px"
	 viewBox="0 0 512.002 512.002" style="enable-background:new 0 0 512.002 512.002;" xml:space="preserve">
<path style="fill:#E3E3E1;" d="M96.002,376.001h320v-80h-320c-8.837,0-16,7.163-16,16v48
	C80.002,368.838,87.165,376.001,96.002,376.001z"/>
<rect x="96" y="312" style="fill:#F1F1F0;" width="320" height="48"/>
<path style="fill:#757267;" d="M96.002,296.001h336c4.418,0,8-3.582,8-8v-8c0-4.418-3.582-8-8-8h-344c-17.673,0-32,14.327-32,32v64
	c0,17.673,14.327,32,32,32h344c4.418,0,8-3.582,8-8v-8c0-4.418-3.582-8-8-8h-336c-8.837,0-16-7.163-16-16v-48
	C80.002,303.165,87.165,296.001,96.002,296.001z"/>
<g>
	<path style="fill:#ACAAA4;" d="M288.002,328.001c4.418,0,8-3.582,8-8s-3.582-8-8-8h-208v16H288.002z"/>
	<path style="fill:#ACAAA4;" d="M296.002,352.001c0-4.418-3.582-8-8-8h-208v16h208C292.42,360.001,296.002,356.419,296.002,352.001z
		"/>
</g>
<path style="fill:#FEAD5A;" d="M355.564,343.709l-11.562-7.708l-11.562,7.708c-5.316,3.544-12.438-0.267-12.438-6.656v-41.052h48
	v41.052C368.002,343.443,360.881,347.254,355.564,343.709z"/>
<path style="fill:#33C0C4;" d="M504.002,400.001h-496c-4.418,0-8,3.582-8,8v96c0,4.418,3.582,8,8,8h496c4.418,0,8-3.582,8-8v-96
	C512.002,403.583,508.42,400.001,504.002,400.001z"/>
<path style="fill:#2D9396;" d="M504.002,496.001h-496c-4.418,0-8-3.582-8-8v16c0,4.418,3.582,8,8,8h496c4.418,0,8-3.582,8-8v-16
	C512.002,492.419,508.42,496.001,504.002,496.001z"/>
<rect x="88" y="400" style="fill:#FAD55A;" width="64" height="112"/>
<rect x="88" y="496" style="fill:#FEAD5A;" width="64" height="16"/>
<rect x="360" y="400" style="fill:#FAD55A;" width="64" height="112"/>
<rect x="360" y="496" style="fill:#FEAD5A;" width="64" height="16"/>
<path style="fill:#B9E8DB;" d="M392.002,120.001h-272c-4.418,0-8,3.582-8,8v136c0,4.418,3.582,8,8,8h272c4.418,0,8-3.582,8-8v-136
	C400.002,123.583,396.42,120.001,392.002,120.001z"/>
<path style="fill:#7ECFC5;" d="M136.002,264.001v-136c0-4.418,3.582-8,8-8h-24c-4.418,0-8,3.582-8,8v136c0,4.418,3.582,8,8,8h24
	C139.584,272.001,136.002,268.419,136.002,264.001z"/>
<path style="fill:#429EA1;" d="M47.762,286.061l-15.761-63.043V104.001c0-4.418-3.582-8-8-8s-8,3.582-8,8v119.017l-15.76,63.043
	c-1.072,4.286,1.534,8.63,5.82,9.701c4.288,1.073,8.631-1.534,9.701-5.82l8.239-32.956l8.239,32.956
	c1.07,4.281,5.577,6.935,9.84,5.783C46.236,294.602,48.808,290.241,47.762,286.061z"/>
<path style="fill:#33C0C4;" d="M491.06,96.609l-232-96c-1.959-0.811-4.158-0.811-6.117,0l-232,96
	c-6.162,2.55-6.542,11.434-0.617,14.498l232,120c2.285,1.182,5.067,1.182,7.352,0l232-120
	C497.602,108.043,497.222,99.158,491.06,96.609z"/>
<path style="fill:#2D9396;" d="M304.002,72.001h-16c-4.418,0-8,3.582-8,8v40h-16v-56c4.418,0,8-3.582,8-8s-3.582-8-8-8h-16
	c-4.418,0-8,3.582-8,8s3.582,8,8,8v56h-16v-40c0-4.418-3.582-8-8-8h-16c-4.418,0-8,3.582-8,8s3.582,8,8,8h8v40c0,4.418,3.582,8,8,8
	h24v32c-4.418,0-8,3.582-8,8s3.582,8,8,8h16c4.418,0,8-3.582,8-8s-3.582-8-8-8v-32h24c4.418,0,8-3.582,8-8v-40h8
	c4.418,0,8-3.582,8-8S308.42,72.001,304.002,72.001z"/>
<g>
</g>
<g>
</g>
<g>
</g>
<g>
</g>
<g>
</g>
<g>
</g>
<g>
</g>
<g>
</g>
<g>
</g>
<g>
</g>
<g>
</g>
<g>
</g>
<g>
</g>
<g>
</g>
<g>
</g>
</svg>
