<?xml version="1.0" encoding="iso-8859-1"?>
<!-- Generator: Adobe Illustrator 19.0.0, SVG Export Plug-In . SVG Version: 6.00 Build 0)  -->
<svg version="1.1" id="Capa_1" xmlns="http://www.w3.org/2000/svg" xmlns:xlink="http://www.w3.org/1999/xlink" x="0px" y="0px"
	 viewBox="0 0 512 512" style="enable-background:new 0 0 512 512;" xml:space="preserve">
<path style="fill:#FBDD7B;" d="M77.206,243.81c8.977,0,16.254,7.278,16.254,16.254v105.651H60.952V260.064
	C60.952,251.087,68.229,243.81,77.206,243.81z"/>
<path style="fill:#FEAD5A;" d="M60.952,260.064c0-7.693,5.351-14.122,12.529-15.808v121.459H60.952V260.064z"/>
<path style="fill:#FBDD7B;" d="M109.714,276.317c8.977,0,16.254,7.278,16.254,16.254v105.651H93.46V292.571
	C93.46,283.595,100.737,276.317,109.714,276.317z"/>
<path style="fill:#FEAD5A;" d="M93.46,292.571c0-7.449,5.017-13.713,11.852-15.634v121.285H93.46V292.571z"/>
<path style="fill:#FBDD7B;" d="M142.222,316.952c8.977,0,16.254,7.278,16.254,16.254v105.651h-32.508V333.206
	C125.968,324.23,133.245,316.952,142.222,316.952z"/>
<path style="fill:#FEAD5A;" d="M125.968,333.206c0-7.449,5.017-13.713,11.852-15.634v121.285h-11.852V333.206z"/>
<g>
	<path style="fill:#FAD55A;" d="M150.349,505.227v-17.608l-48.762-32.508l-68.259-68.259c-3.127-3.127-4.884-7.369-4.884-11.792
		v-82.948c0-9.237,7.705-16.675,17.039-16.236c8.743,0.412,15.469,7.943,15.469,16.695v56.889l65.016,40.635h32.508
		c35.907,0,65.016,29.109,65.016,65.016v50.116c0,3.74-3.032,6.773-6.773,6.773h-59.598
		C153.382,512,150.349,508.968,150.349,505.227z"/>
	<path style="fill:#FAD55A;" d="M83.011,346.18l42.957,43.608l-22.987,22.987l-43.129-43.782
		c-6.299-6.395-6.222-16.687,0.173-22.986C66.42,339.708,76.712,339.786,83.011,346.18z"/>
</g>
<g>
	<path style="fill:#FEAD5A;" d="M102.981,412.776L102.981,412.776l-43.129-43.782c-5.465-5.549-6.124-14.027-2.027-20.29
		l45.156,45.155C108.205,399.083,108.205,407.552,102.981,412.776z"/>
	<path style="fill:#FEAD5A;" d="M44.698,275.881v97.961l73.143,73.143l52.794,30.168c2.533,1.447,4.095,4.14,4.095,7.056V512
		h-17.608c-3.74,0-6.773-3.032-6.773-6.773v-17.608l-48.762-32.508l-68.259-68.259c-3.127-3.127-4.884-7.369-4.884-11.792v-82.948
		C28.444,283.137,35.724,275.884,44.698,275.881z"/>
</g>
<path style="fill:#FBDD7B;" d="M434.794,243.81c-8.977,0-16.254,7.278-16.254,16.254v105.651h32.508V260.064
	C451.048,251.087,443.771,243.81,434.794,243.81z"/>
<path style="fill:#FEAD5A;" d="M451.048,260.064c0-7.693-5.351-14.122-12.529-15.808v121.459h12.529V260.064z"/>
<path style="fill:#FBDD7B;" d="M402.286,276.317c-8.977,0-16.254,7.278-16.254,16.254v105.651h32.508V292.571
	C418.54,283.595,411.263,276.317,402.286,276.317z"/>
<path style="fill:#FEAD5A;" d="M418.54,292.571c0-7.449-5.017-13.713-11.852-15.634v121.285h11.852V292.571z"/>
<path style="fill:#FBDD7B;" d="M369.778,316.952c-8.977,0-16.254,7.278-16.254,16.254v105.651h32.508V333.206
	C386.032,324.23,378.755,316.952,369.778,316.952z"/>
<path style="fill:#FEAD5A;" d="M386.032,333.206c0-7.449-5.017-13.713-11.852-15.634v121.285h11.852V333.206z"/>
<g>
	<path style="fill:#FAD55A;" d="M361.651,505.227v-17.608l48.762-32.508l68.259-68.259c3.127-3.127,4.884-7.369,4.884-11.792
		v-82.948c0-9.237-7.705-16.675-17.039-16.236c-8.743,0.412-15.469,7.943-15.469,16.695v56.889l-65.016,40.635h-32.508
		c-35.907,0-65.016,29.109-65.016,65.016v50.116c0,3.74,3.032,6.773,6.773,6.773h59.598
		C358.618,512,361.651,508.968,361.651,505.227z"/>
	<path style="fill:#FAD55A;" d="M428.989,346.18l-42.957,43.608l22.987,22.987l43.129-43.782c6.299-6.395,6.222-16.687-0.173-22.986
		C445.58,339.708,435.288,339.786,428.989,346.18z"/>
</g>
<g>
	<path style="fill:#FEAD5A;" d="M409.019,412.776L409.019,412.776l43.129-43.782c5.465-5.549,6.124-14.027,2.027-20.29
		l-45.156,45.155C403.795,399.083,403.795,407.552,409.019,412.776z"/>
	<path style="fill:#FEAD5A;" d="M467.302,275.881v97.961l-73.143,73.143l-52.794,30.168c-2.533,1.447-4.095,4.14-4.095,7.056V512
		h17.608c3.74,0,6.773-3.032,6.773-6.773v-17.608l48.762-32.508l68.259-68.259c3.127-3.127,4.884-7.369,4.884-11.792v-82.948
		C483.556,283.137,476.276,275.884,467.302,275.881z"/>
</g>
<path style="fill:#FF82A4;" d="M343.364,132.739c-26.15-17.402-58.397-13.571-87.364,10.004
	c-28.967-23.573-61.214-27.406-87.364-10.004c-29.272,19.478-42.12,59.887-29.886,93.995
	c26.064,72.664,109.928,117.181,113.485,119.04c2.338,1.221,5.192,1.221,7.53,0c3.557-1.859,87.421-46.375,113.485-119.04
	C385.484,192.626,372.636,152.217,343.364,132.739z"/>
<path style="fill:#F5577E;" d="M163.086,221.377c-12.234-34.108,0.614-74.517,29.886-93.995c3.203-2.131,6.498-3.94,9.866-5.437
	c-11.987,0.171-23.597,3.735-34.202,10.794c-29.272,19.478-42.12,59.887-29.886,93.995
	c26.064,72.664,109.928,117.181,113.485,119.04c2.338,1.221,5.192,1.221,7.53,0c0.795-0.415,5.619-2.973,12.907-7.496
	C255.28,328.434,186.287,286.058,163.086,221.377z"/>
<path style="fill:#CE384F;" d="M304.762,197.81h-16.254c-4.488,0-8.127,3.639-8.127,8.127v40.635h-16.254v-56.889
	c4.488,0,8.127-3.639,8.127-8.127s-3.639-8.127-8.127-8.127h-16.254c-4.488,0-8.127,3.639-8.127,8.127s3.639,8.127,8.127,8.127
	v56.889h-16.254v-40.635c0-4.488-3.639-8.127-8.127-8.127h-16.254c-4.488,0-8.127,3.639-8.127,8.127s3.639,8.127,8.127,8.127h8.127
	v40.635c0,4.488,3.639,8.127,8.127,8.127h24.381v32.508c-4.488,0-8.127,3.639-8.127,8.127s3.639,8.127,8.127,8.127h16.254
	c4.488,0,8.127-3.639,8.127-8.127s-3.639-8.127-8.127-8.127v-32.508h24.381c4.488,0,8.127-3.639,8.127-8.127v-40.635h8.127
	c4.488,0,8.127-3.639,8.127-8.127S309.25,197.81,304.762,197.81z"/>
<g>
	<path style="fill:#FAD55A;" d="M196.912,76.772c-3.888,0-6.497-2.57-7.899-5.956c-1.718-4.147,0.251-8.901,4.397-10.619
		c4.146-1.718,8.901,0.251,10.619,4.397l0.389,0.939C206.594,70.786,202.619,76.772,196.912,76.772z M184.083,45.8
		c-3.189,0-6.215-1.889-7.511-5.018l-3.111-7.508c-1.718-4.147,0.252-8.901,4.399-10.618c4.145-1.719,8.9,0.251,10.619,4.398
		l3.111,7.508C193.765,39.814,189.789,45.8,184.083,45.8z"/>
	<path style="fill:#FAD55A;" d="M113.338,160.339c-1.037,0-2.091-0.199-3.108-0.621l-0.939-0.389
		c-4.147-1.718-6.116-6.472-4.397-10.619c1.719-4.147,6.473-6.116,10.619-4.397c1.532,0.635,2.93,1.345,4.024,2.636
		c1.269,1.497,1.966,3.445,1.931,5.408C121.392,156.728,117.707,160.339,113.338,160.339z M82.367,147.51
		c-1.037,0-2.09-0.199-3.108-0.621l-7.508-3.111c-4.147-1.717-6.117-6.471-4.399-10.618c1.718-4.148,6.473-6.117,10.619-4.398
		l7.508,3.111c3.413,1.413,5.488,5.082,4.925,8.737C89.802,144.529,86.332,147.51,82.367,147.51z"/>
	<path style="fill:#FAD55A;" d="M398.662,160.339c-3.189,0-6.215-1.889-7.511-5.017c-1.718-4.147,0.251-8.901,4.397-10.619
		l0.939-0.389c4.145-1.719,8.901,0.25,10.619,4.397c1.718,4.147-0.251,8.901-4.397,10.619l-0.939,0.389
		C400.753,160.14,399.698,160.339,398.662,160.339z M429.633,147.51c-3.965,0-7.436-2.981-8.039-6.9
		c-0.562-3.654,1.512-7.323,4.925-8.737l7.508-3.111c4.148-1.717,8.901,0.251,10.619,4.398c1.718,4.147-0.252,8.901-4.399,10.618
		l-7.508,3.111C431.724,147.311,430.67,147.51,429.633,147.51z"/>
	<path style="fill:#FAD55A;" d="M315.088,76.772c-1.037,0-2.091-0.199-3.109-0.621c-4.147-1.718-6.116-6.472-4.397-10.619
		l0.389-0.939c1.719-4.147,6.474-6.116,10.619-4.397c4.147,1.718,6.116,6.472,4.397,10.619l-0.389,0.939
		C321.302,74.883,318.277,76.772,315.088,76.772z M327.917,45.8c-5.706,0-9.681-5.986-7.505-11.239l3.111-7.508
		c1.719-4.147,6.475-6.117,10.619-4.398c4.147,1.717,6.117,6.471,4.399,10.618l-3.111,7.508
		C334.132,43.911,331.106,45.8,327.917,45.8z"/>
</g>
<g>
	<path style="fill:#FF8E44;" d="M256,32.508c-4.488,0-8.127-3.639-8.127-8.127V8.127C247.873,3.639,251.512,0,256,0
		c4.488,0,8.127,3.639,8.127,8.127v16.254C264.127,28.869,260.488,32.508,256,32.508z"/>
	<path style="fill:#FF8E44;" d="M256,81.27c-4.488,0-8.127-3.639-8.127-8.127V56.889c0-4.488,3.639-8.127,8.127-8.127
		c4.488,0,8.127,3.639,8.127,8.127v16.254C264.127,77.631,260.488,81.27,256,81.27z"/>
	<path style="fill:#FF8E44;" d="M118.08,89.636c-2.079,0-4.16-0.793-5.747-2.38l-11.493-11.493c-3.175-3.175-3.175-8.319,0-11.494
		c3.174-3.173,8.319-3.173,11.493,0l11.493,11.493C128.83,80.766,125.187,89.636,118.08,89.636z"/>
	<path style="fill:#FF8E44;" d="M152.561,124.116c-2.079,0-4.16-0.793-5.747-2.38l-11.494-11.493c-3.174-3.174-3.175-8.319,0-11.493
		c3.174-3.175,8.319-3.174,11.493-0.001l11.494,11.493C163.311,115.246,159.667,124.116,152.561,124.116z"/>
	<path style="fill:#FF8E44;" d="M60.952,227.556H44.698c-4.488,0-8.127-3.639-8.127-8.127s3.639-8.127,8.127-8.127h16.254
		c4.488,0,8.127,3.639,8.127,8.127S65.441,227.556,60.952,227.556z"/>
	<path style="fill:#FF8E44;" d="M109.714,227.556H93.46c-4.488,0-8.127-3.639-8.127-8.127s3.639-8.127,8.127-8.127h16.254
		c4.488,0,8.127,3.639,8.127,8.127S114.202,227.556,109.714,227.556z"/>
	<path style="fill:#FF8E44;" d="M467.302,227.556h-16.254c-4.488,0-8.127-3.639-8.127-8.127s3.639-8.127,8.127-8.127h16.254
		c4.488,0,8.127,3.639,8.127,8.127S471.79,227.556,467.302,227.556z"/>
	<path style="fill:#FF8E44;" d="M418.54,227.556h-16.254c-4.488,0-8.127-3.639-8.127-8.127s3.639-8.127,8.127-8.127h16.254
		c4.488,0,8.127,3.639,8.127,8.127S423.028,227.556,418.54,227.556z"/>
	<path style="fill:#FF8E44;" d="M393.92,89.636c-7.107,0-10.75-8.871-5.747-13.874l11.493-11.493c3.174-3.173,8.319-3.173,11.493,0
		c3.175,3.175,3.175,8.319,0,11.494l-11.493,11.493C398.079,88.842,396,89.636,393.92,89.636z"/>
	<path style="fill:#FF8E44;" d="M359.439,124.116c-7.106,0-10.75-8.871-5.747-13.874l11.494-11.493
		c3.175-3.173,8.32-3.173,11.493,0.001c3.175,3.174,3.174,8.319,0,11.493l-11.494,11.493
		C363.599,123.323,361.52,124.116,359.439,124.116z"/>
</g>
<g>
</g>
<g>
</g>
<g>
</g>
<g>
</g>
<g>
</g>
<g>
</g>
<g>
</g>
<g>
</g>
<g>
</g>
<g>
</g>
<g>
</g>
<g>
</g>
<g>
</g>
<g>
</g>
<g>
</g>
</svg>
