<?xml version="1.0" encoding="iso-8859-1"?>
<!-- Generator: Adobe Illustrator 19.0.0, SVG Export Plug-In . SVG Version: 6.00 Build 0)  -->
<svg version="1.1" id="Capa_1" xmlns="http://www.w3.org/2000/svg" xmlns:xlink="http://www.w3.org/1999/xlink" x="0px" y="0px"
	 viewBox="0 0 512 512" style="enable-background:new 0 0 512 512;" xml:space="preserve">
<path style="fill:#74D0E3;" d="M456,312H233.941L119.598,197.656c-15.596-15.597-40.973-15.595-56.568,0
	c-3.08,3.081-3.08,8.233,0,11.314l148.686,148.687c1.5,1.5,3.535,2.343,5.657,2.343H488c4.418,0,8-3.582,8-8
	C496,329.944,478.056,312,456,312z"/>
<path style="fill:#53AAD4;" d="M225.373,344c-2.122,0-4.157-0.843-5.657-2.343L71.03,192.971c-0.31-0.311-0.581-0.647-0.829-0.995
	c-2.548,1.584-4.961,3.47-7.171,5.681c-3.08,3.082-3.08,8.233,0,11.314l148.686,148.687c1.5,1.5,3.535,2.343,5.657,2.343H488
	c4.418,0,8-3.582,8-8c0-2.739-0.278-5.414-0.805-8L225.373,344L225.373,344z"/>
<path style="fill:#838076;" d="M504,368H211.295L36.262,194.321c-3.127-3.104-8.176-3.094-11.292,0.021L2.343,216.97
	c-3.116,3.116-3.125,8.165-0.021,11.293L184,411.296V504c0,4.418,3.582,8,8,8h32c4.418,0,8-3.582,8-8v-24h192v24
	c0,4.418,3.582,8,8,8h32c4.418,0,8-3.582,8-8v-88h32c4.418,0,8-3.582,8-8v-32C512,371.582,508.418,368,504,368z M232,432v-16h192v16
	H232z"/>
<path style="fill:#757267;" d="M12.939,206.374L2.343,216.97c-3.116,3.116-3.125,8.165-0.021,11.293L184,411.296V504
	c0,4.418,3.582,8,8,8h16V408L12.939,206.374z"/>
<path style="fill:#FEAD5A;" d="M488,24H296c-4.418,0-8,3.582-8,8v248c0,4.418,3.582,8,8,8h192c4.418,0,8-3.582,8-8V32
	C496,27.582,492.418,24,488,24z"/>
<path style="fill:#FF8E44;" d="M312,280V32c0-4.418,3.582-8,8-8h-24c-4.418,0-8,3.582-8,8v248c0,4.418,3.582,8,8,8h24
	C315.582,288,312,284.418,312,280z"/>
<path style="fill:#F1F1F0;" d="M464,24H320c-4.418,0-8,3.582-8,8v216c0,4.418,3.582,8,8,8h144c4.418,0,8-3.582,8-8V32
	C472,27.582,468.418,24,464,24z"/>
<path style="fill:#E3E3E1;" d="M336,248V32c0-4.418,3.582-8,8-8h-24c-4.418,0-8,3.582-8,8v216c0,4.418,3.582,8,8,8h24
	C339.582,256,336,252.418,336,248z"/>
<path style="fill:#838076;" d="M432,24h-9.012C419.426,10.214,406.883,0,392,0s-27.426,10.214-30.988,24H352c-4.418,0-8,3.582-8,8
	v32c0,4.418,3.582,8,8,8h80c4.418,0,8-3.582,8-8V32C440,27.582,436.418,24,432,24z"/>
<path style="fill:#757267;" d="M432,56h-80c-4.418,0-8-3.582-8-8v16c0,4.418,3.582,8,8,8h80c4.418,0,8-3.582,8-8V48
	C440,52.418,436.418,56,432,56z"/>
<g>
	<path style="fill:#E3E3E1;" d="M424,232h-64c-4.418,0-8-3.582-8-8s3.582-8,8-8h64c4.418,0,8,3.582,8,8S428.418,232,424,232z"/>
	<path style="fill:#E3E3E1;" d="M424,200h-64c-4.418,0-8-3.582-8-8s3.582-8,8-8h64c4.418,0,8,3.582,8,8S428.418,200,424,200z"/>
	<path style="fill:#E3E3E1;" d="M424,168h-64c-4.418,0-8-3.582-8-8s3.582-8,8-8h64c4.418,0,8,3.582,8,8S428.418,168,424,168z"/>
</g>
<path style="fill:#757267;" d="M393,40h-1c-4.418,0-8-3.582-8-8s3.582-8,8-8h1c4.418,0,8,3.582,8,8S397.418,40,393,40z"/>
<path style="fill:#C8C7C2;" d="M424,80h-64c-4.418,0-8,3.582-8,8v40c0,4.418,3.582,8,8,8h64c4.418,0,8-3.582,8-8V88
	C432,83.582,428.418,80,424,80z"/>
<path style="fill:#838076;" d="M248,64c-4.418,0-8-3.582-8-8V32c0-4.418,3.582-8,8-8s8,3.582,8,8v24C256,60.418,252.418,64,248,64z"
	/>
<path style="fill:#918E86;" d="M232,256h-24c-4.418,0-8-3.582-8-8v-56c0-4.418,3.582-8,8-8s8,3.582,8,8v48h16c4.418,0,8,3.582,8,8
	S236.418,256,232,256z"/>
<path style="fill:#FEAD5A;" d="M271.155,84.422l-16-32C253.8,49.712,251.03,48,248,48s-5.8,1.712-7.155,4.422l-16,32
	c-1.24,2.48-1.107,5.426,0.35,7.784S229.228,96,232,96h32c2.772,0,5.348-1.436,6.805-3.794S272.396,86.902,271.155,84.422z"/>
<path style="fill:#FAD55A;" d="M264,80h-32c-4.418,0-8,3.582-8,8v184c0,8.822,7.178,16,16,16h16c8.822,0,16-7.178,16-16V88
	C272,83.582,268.418,80,264,80z"/>
<path style="fill:#FEAD5A;" d="M240,272V88c0-4.418,3.582-8,8-8h-16c-4.418,0-8,3.582-8,8v184c0,8.822,7.178,16,16,16h16
	C247.178,288,240,280.822,240,272z"/>
<path style="fill:#74D0E3;" d="M264,80h-32c-4.418,0-8,3.582-8,8v104h48V88C272,83.582,268.418,80,264,80z"/>
<path style="fill:#53AAD4;" d="M248,80h-16c-4.418,0-8,3.582-8,8v104h16V88C240,83.582,243.582,80,248,80z"/>
<g>
</g>
<g>
</g>
<g>
</g>
<g>
</g>
<g>
</g>
<g>
</g>
<g>
</g>
<g>
</g>
<g>
</g>
<g>
</g>
<g>
</g>
<g>
</g>
<g>
</g>
<g>
</g>
<g>
</g>
</svg>
