<svg height="512" viewBox="0 0 64 64" width="512" xmlns="http://www.w3.org/2000/svg"><path d="m30.33 35.83a6.039 6.039 0 0 0 -3.75-3.04l-1.22-.33-5.36-1.46h-6l-6.58 1.79a6.013 6.013 0 0 0 -4.42 5.79v11.42h28v-11.42a5.976 5.976 0 0 0 -.67-2.75z" fill="#00ccb3"/><path d="m18.91 43.19-.91-8.19h-2l-1 9 2 2 .3-.3 1.7-1.7z" fill="#ff6243"/><path d="m20 31-2 4h-2l-2-4z" fill="#ff5023"/><path d="m56.58 32.79-6.58-1.79h-6l-5.36 1.46-1.22.33a6.039 6.039 0 0 0 -3.75 3.04 5.976 5.976 0 0 0 -.67 2.75v11.42h28v-11.42a6.013 6.013 0 0 0 -4.42-5.79z" fill="#e6e7e8"/><path d="m50 31-2 4h-2l-2-4z" fill="#ff5023"/><path d="m48 35h-2l-.91 8.19-.09.81 1.7 1.7.3.3 2-2z" fill="#ff6243"/><path d="m46.7 45.7a6.016 6.016 0 0 0 -4.12-3.91l-7.58-2.79h-6l-7.58 2.79a6.016 6.016 0 0 0 -4.12 3.91 6.166 6.166 0 0 0 -.3 1.88v10.42h30v-10.42a6.166 6.166 0 0 0 -.3-1.88z" fill="#3d9ae2"/><path d="m50.34 14.68-.34-.68-1.66 1.66a7.985 7.985 0 0 1 -5.65 2.34h-3.69v2a7.987 7.987 0 0 0 2 5.29c.11.13.22.25.34.37a8.026 8.026 0 0 0 8.66 1.76 8.008 8.008 0 0 0 5-7.42v-2l.01-.04a5.986 5.986 0 0 1 -4.67-3.28z" fill="#ffc477"/><path d="m50 27.42v3.58h-6v-3.58a8.049 8.049 0 0 0 6 0z" fill="#ffb655"/><path d="m47 6a9 9 0 0 0 -9 9v3h4.69a7.985 7.985 0 0 0 5.65-2.34l1.66-1.66.34.68a5.986 5.986 0 0 0 4.67 3.28 5.374 5.374 0 0 0 .7.04h.29v-3a9 9 0 0 0 -9-9z" fill="#787680"/><path d="m24.59 17.89a5.975 5.975 0 0 1 -4.25-3.21l-.34-.68-1.66 1.66a7.985 7.985 0 0 1 -5.65 2.34h-3.69v2a8.014 8.014 0 0 0 2.34 5.66 8.026 8.026 0 0 0 8.66 1.76 8.018 8.018 0 0 0 5-7.42v-2l.01-.04c-.14-.02-.28-.04-.42-.07z" fill="#ffc477"/><path d="m17 6a9 9 0 0 0 -9 9v3h4.69a7.985 7.985 0 0 0 5.65-2.34l1.66-1.66.34.68a5.975 5.975 0 0 0 4.25 3.21c.14.03.28.05.42.07a5.374 5.374 0 0 0 .7.04h.29v-3a9 9 0 0 0 -9-9z" fill="#787680"/><path d="m20 27.42v3.58h-6v-3.58a8.049 8.049 0 0 0 6 0z" fill="#ffb655"/><path d="m33.78 50-.78-7h-2l-.78 7-.22 2 2 2 2-2z" fill="#ff6243"/><path d="m33 39h-2-2l2 4h2l2-4z" fill="#ff5023"/><path d="m35 35.42v3.58h-6v-3.58a8.54 8.54 0 0 0 1.33.41 8.288 8.288 0 0 0 3.34 0 8.54 8.54 0 0 0 1.33-.41z" fill="#ffb655"/><path d="m35.34 22.68-.34-.68-1.66 1.66a7.985 7.985 0 0 1 -5.65 2.34h-3.69v2a7.936 7.936 0 0 0 1.36 4.46 8.7 8.7 0 0 0 .98 1.2 8.124 8.124 0 0 0 2.66 1.76 8.54 8.54 0 0 0 1.33.41 8.288 8.288 0 0 0 3.34 0 8.54 8.54 0 0 0 1.33-.41 8.016 8.016 0 0 0 5-7.42v-2l.01-.04a5.986 5.986 0 0 1 -4.67-3.28z" fill="#ffc477"/><path d="m39.48 18a9 9 0 0 0 -16.48 5v3h4.69a7.985 7.985 0 0 0 5.65-2.34l1.66-1.66.34.68a5.986 5.986 0 0 0 4.67 3.28 5.374 5.374 0 0 0 .7.04h.29v-3a8.94 8.94 0 0 0 -1.52-5z" fill="#787680"/><g fill="#ffa733"><path d="m20 27.42v1a8.049 8.049 0 0 1 -6 0v-1a8.049 8.049 0 0 0 6 0z"/><path d="m35 35.42v1a8.54 8.54 0 0 1 -1.33.41 8.288 8.288 0 0 1 -3.34 0 8.54 8.54 0 0 1 -1.33-.41v-1a8.54 8.54 0 0 0 1.33.41 8.288 8.288 0 0 0 3.34 0 8.54 8.54 0 0 0 1.33-.41z"/><path d="m50 27.42v1a8.049 8.049 0 0 1 -6 0v-1a8.049 8.049 0 0 0 6 0z"/></g><path d="m32 33a4 4 0 0 1 -4-4h2a2 2 0 0 0 4 0h2a4 4 0 0 1 -4 4z" fill="#ff9811"/><path d="m17 25a4 4 0 0 1 -4-4h2a2 2 0 0 0 4 0h2a4 4 0 0 1 -4 4z" fill="#ff9811"/><path d="m47 25a4 4 0 0 1 -4-4h2a2 2 0 0 0 4 0h2a4 4 0 0 1 -4 4z" fill="#ff9811"/><path d="m21 48h2v10h-2z" fill="#1e81ce"/><path d="m7 40h2v10h-2z" fill="#00b39d"/><path d="m55 40h2v10h-2z" fill="#d1d3d4"/><path d="m41 48h2v10h-2z" fill="#1e81ce"/></svg>